/* XPM */
static char * clashic32_xpm[] = {
"32 32 32 1",
" 	c None",
".	c #F7931A",
"+	c #000000",
"@	c #B03B00",
"#	c #00210F",
"$	c #F79316",
"%	c #D47E1A",
"&	c #F79313",
"*	c #610000",
"=	c #000004",
"-	c #383B13",
";	c #F77E0F",
">	c #330000",
",	c #F7690A",
"'	c #0F0000",
")	c #0E0000",
"!	c #D45306",
"~	c #000006",
"{	c #000001",
"]	c #385316",
"^	c #000002",
"/	c #8B7E1A",
"(	c #030000",
"_	c #D4931A",
":	c #D49316",
"<	c #00000A",
"[	c #B0931A",
"}	c #360000",
"|	c #382106",
"1	c #B0690A",
"2	c #380000",
"3	c #8B2100",
"                                ",
"           ..........           ",
"         ..............         ",
"       ....          ....       ",
"      ...              ...      ",
"     ..                  ..     ",
"    ..         .          ..    ",
"   ..       .              ..   ",
"   ..       .              ..   ",
"  ..         ........           ",
"  ..      ....     ..           ",
" ..         ..     ...          ",
" ..         ..     ..           ",
" ..         ..     ..           ",
" ..          ..  ......         ",
" ..          ...     ...        ",
" ..          ..      ...        ",
" ..          ..      ...        ",
" ..           ..     ...        ",
" ..           ..    ..          ",
" ..           ......            ",
"  ..         ....  .            ",
"  ..        .   .  .            ",
"   ..           .  .       ..   ",
"   ++   +       .     +    @#   ",
" +  $%  +                 ..    ",
" +   .&*=   ++  +++   +++-;>  ++",
"      ,+# '  + +     ) .!~ { +  ",
"+      +]@#  ^  +    ~/.!+++    ",
" +    (+ @#_@#:%!<[.@#_  ++     ",
"  ++   +{ }~|<12+-.$3   +++  ++ ",
"                                "};
