/* XPM */
static char * clashic64_xpm[] = {
"64 64 45 1",
" 	c None",
".	c #F7931A",
"+	c #000000",
"@	c #00210F",
"#	c #D4931A",
"$	c #000006",
"%	c #8B7E1A",
"&	c #383B0F",
"*	c #B07E1A",
"=	c #F77E0F",
"-	c #632100",
";	c #635316",
">	c #385316",
",	c #F79313",
"'	c #4C0000",
")	c #F77E16",
"!	c #B0530F",
"~	c #F7690A",
"{	c #D45306",
"]	c #000003",
"^	c #F79316",
"/	c #8B2100",
"(	c #00000A",
"_	c #B0931A",
":	c #630000",
"<	c #000001",
"[	c #380000",
"}	c #003B13",
"|	c #63691A",
"1	c #010000",
"2	c #000005",
"3	c #F77E13",
"4	c #8B3B06",
"5	c #B03B00",
"6	c #5C0000",
"7	c #B03B06",
"8	c #635313",
"9	c #340000",
"0	c #8A2100",
"a	c #002106",
"b	c #383B13",
"c	c #D4690F",
"d	c #632106",
"e	c #38210A",
"f	c #8B6916",
"                                .                               ",
"                         ...............                        ",
"                     ......................                     ",
"                   ..........................                   ",
"                 ..............................                 ",
"               ..................................               ",
"              ...........              ...........              ",
"            ..........                    ..........            ",
"           ........                         .........           ",
"          ........                            ........          ",
"         .......                                .......         ",
"        .......                                  .......        ",
"       .......                ..                  .......       ",
"       ......           ..    ...                  ......       ",
"      ......            ..    ...                   ......      ",
"     ......             ..     ..                    ......     ",
"     .....              ...    ..                     .....     ",
"    ......              ...    ..........             ......    ",
"    .....                .................             ...      ",
"   .....                ...................            .        ",
"   .....            .............  ........                     ",
"  ......          ..........         ......                     ",
"  .....           ..........          ......                    ",
"  .....                ......         ......                    ",
"  .....                 .....         .....                     ",
" .....                  .....         ....                      ",
" .....                  .....        .....                      ",
" .....                  ......      ........                    ",
" .....                   .....    ............                  ",
" .....                   ......................                 ",
" .....                   .......................                ",
" .....                   .......         .......                ",
" .....                    .....           ......                ",
" .....                    .....           ......                ",
" .....                    .....            ......               ",
" .....                    .....           ......                ",
" .....                     .....          ......                ",
" .....                     .....         ......                 ",
" .....                     .....        .......                 ",
"  .....                    .....     ........                   ",
"  .....                    .................                    ",
"  .....                    ..............                       ",
"  ......                 ...............                        ",
"   .....                ..........    ..                        ",
"   .....                ...... ...    ..               .        ",
"    .....               ..     ...    ...              ...      ",
"    ......                      ..    ...             ......    ",
"     .....                      ..     ..             .....     ",
"     ......                     ...                  +@#...     ",
"      ......   ++               ..         ++       ++$%..      ",
"       ++$&*.  ++                         ++       =-$;..       ",
"    +++++++>.,'+                          ++      .......       ",
"   ++   .)!#.~++                          ++     .......        ",
"  ++     ....{++       +++       +++      ++++] ..^/+(_     +++ ",
" +++      ..^/+(_.   ++++++    ++++++     +++++$%.,:+@    ++++++",
" ++        .,:+@#.,:+<   ++    ++        ++ .~++>.=[+    ++     ",
" ++         ~++}..{++|   ++    ++        ++>.=[+>.~++    ++     ",
" ++          ++|.^/+@#.^/+$    1++     .{++|.{++|. ++   ++      ",
" ++          +2%.=[+}..,:+@#...34+++>..^/+(_.5+$%  +    ++      ",
" ++         +++  =[+}..=[+}......3:+(_.,:+@#^/+   ++    ++      ",
" +++        +++   6+(*^7++>..=8#.3-+(_.~++>.=9+   ++     ++     ",
"  +++++++    +++   +++++++}..5++++++>..{++|  ++   ++     +++++  ",
"    +++       +     ++] 0ab#.cd+++ef..^/+$   ++   +        +++  ",
"                                                                "};
