/* XPM */
static char * C:\Users\klaus\Desktop\Clashic\clashic128_xpm[] = {
"128 128 50 1",
" 	c None",
".	c #F7931A",
"+	c #000000",
"@	c #F79316",
"#	c #8B2100",
"$	c #00000A",
"%	c #B0931A",
"&	c #F7690A",
"*	c #63691A",
"=	c #8B3B0A",
"-	c #382106",
";	c #002106",
">	c #38210A",
",	c #8B5313",
"'	c #D4931A",
")	c #B03B00",
"!	c #000006",
"~	c #8B7E1A",
"{	c #383B0F",
"]	c #B07E1A",
"^	c #00210F",
"/	c #F77E0F",
"(	c #380000",
"_	c #D4690A",
":	c #00210A",
"<	c #8B6916",
"[	c #D47E13",
"}	c #8B3B06",
"|	c #000007",
"1	c #D47E1A",
"2	c #635313",
"3	c #385316",
"4	c #D45306",
"5	c #F79313",
"6	c #630000",
"7	c #003B13",
"8	c #B07E16",
"9	c #B05306",
"0	c #5C0000",
"a	c #000003",
"b	c #B03B06",
"c	c #000009",
"d	c #F77E16",
"e	c #F77E13",
"f	c #632100",
"g	c #636913",
"h	c #633B0A",
"i	c #B06916",
"j	c #D4690F",
"k	c #620000",
"                                                               .                                                                ",
"                                                     ......................                                                     ",
"                                                ...............................                                                 ",
"                                             ......................................                                             ",
"                                          ............................................                                          ",
"                                        ................................................                                        ",
"                                     ......................................................                                     ",
"                                   ..........................................................                                   ",
"                                 ..............................................................                                 ",
"                                ................................................................                                ",
"                              ....................................................................                              ",
"                             ......................................................................                             ",
"                           ...........................                    ...........................                           ",
"                          .......................                              .......................                          ",
"                        ......................                                    .....................                         ",
"                       .....................                                        .....................                       ",
"                      ...................                                              ...................                      ",
"                     ..................                                                  ..................                     ",
"                    ..................                                                    ..................                    ",
"                   .................                                                        .................                   ",
"                  ................                                                            ................                  ",
"                 ................                                                              ................                 ",
"                ................                               ..                               ................                ",
"               ...............                             ......                                 ...............               ",
"              ...............                              ......                                  ...............              ",
"              ..............                       .       ......                                   ..............              ",
"             ..............                    .....       .......                                   ..............             ",
"            ..............                    .......       ......                                    ..............            ",
"            .............                      ......       ......                                     .............            ",
"           .............                       ......       ......                                      .............           ",
"          .............                        ......       .......                                      .............          ",
"          .............                        .......       ......                                      .............          ",
"         .............                          ......       ......                                       .............         ",
"        .............                           ......       ..................                            ............         ",
"        ............                            ......       .....................                          ............        ",
"       .............                            .......   .........................                         ............        ",
"       ............                              ...................................                         .........          ",
"      .............                              ....................................                        .......            ",
"      ............                              ......................................                        ....              ",
"      ...........                           ..........................................                         .                ",
"     ............                       ...............................................                                         ",
"     ...........                    ..............................    .................                                         ",
"    ............                   .........................             ..............                                         ",
"    ............                    .....................                 ..............                                        ",
"    ...........                     .....................                  .............                                        ",
"   ............                     .....................                   ............                                        ",
"   ...........                      .....................                   ............                                        ",
"   ...........                       .       .............                  ............                                        ",
"  ............                                ............                  ...........                                         ",
"  ...........                                  ...........                  ...........                                         ",
"  ...........                                  ...........                  ..........                                          ",
"  ...........                                  ............                ..........                                           ",
"  ...........                                  ............               ..........                                            ",
" ............                                   ...........              ...........                                            ",
" ...........                                    ...........             .................                                       ",
" ...........                                    ............          .....................                                     ",
" ...........                                    ............       ..........................                                   ",
" ...........                                     ...........    ..............................                                  ",
" ...........                                     ..............................................                                 ",
" ...........                                     ..............................................                                 ",
" ...........                                     ...............................................                                ",
" ...........                                      ..............................................                                ",
" ...........                                      ...................            ................                               ",
" ...........                                      ...............                 ...............                               ",
" ...........                                      ............                     ..............                               ",
" ...........                                       ...........                      .............                               ",
" ...........                                       ...........                      .............                               ",
" ...........                                       ............                     ..............                              ",
" ...........                                       ............                      .............                              ",
" ...........                                        ...........                      .............                              ",
" ...........                                        ...........                     .............                               ",
" ...........                                        ............                    .............                               ",
" ...........                                        ............                    .............                               ",
" ...........                                         ...........                   ..............                               ",
" ............                                        ...........                  ..............                                ",
"  ...........                                        ............                ..............                                 ",
"  ...........                                        ............              ................                                 ",
"  ...........                                         ...........            .................                                  ",
"  ...........                                         ...........         ...................                                   ",
"  ............                                        ............    .....................                                     ",
"   ...........                                        ....................................                                      ",
"   ...........                                        ..................................                                        ",
"   ............                                       ................................                                          ",
"    ...........                                      ..............................                                             ",
"    ............                                  ..............................                                                ",
"    ............                               .................................                                                ",
"     ...........                               .......................... ......                                                ",
"     ............                              ......................      ......                                               ",
"      ...........                               ....................       ......                              .                ",
"      ............                              ............  ......       ......                             ....              ",
"      .............                             ........      ......       ......                            .......            ",
"       ............                             ....          .......       ......                           .........          ",
"       .............                                           ......       ......                          ............        ",
"        ............                                           ......       ......                          ............        ",
"        .............                                          ......       ......                         ............         ",
"         .............                                         .......       ......                       .............         ",
"          .............                                         ......       ....                        .............          ",
"          .............                                         ......                                   .............          ",
"           .............      ++++                              ......                +++++             @#++++$%.....           ",
"            .............    +++++                              .....                 +++++            .&++++++*....            ",
"            =-++++;>,'....   +++++                                                   +++++            ..)+++++!~....            ",
"          ++++++++++++{]...  +++++                                                   +++++           ...)+++++$%...             ",
"        +++++++++++++++*...@ ++++                                                    +++++          ....&+++++*...              ",
"       +++++++++++++++^'.../(++++                                                    +++++         ......_(+:<....              ",
"      ++++++++++++++++*....&+++++                                                    ++++         ...............               ",
"     +++++++    ..[}($%....)++++|                                                   +++++       ................                ",
"    ++++++       ...@1....@#++++^             ++++                  ++++            +++++  +++ 2'......&+++++*.           ++++  ",
"   ++++++         ......../(++++3.         ++++++++++++         ++++++++++++        ++++++++++++:].....)++++$%        ++++++++++",
"   +++++           .......4+++++*...     ++++++++++++++        ++++++++++++         +++++++++++++$%...@#++++^        +++++++++++",
"  ++++++            ......)++++$%.....  +++++++++++++++       +++++++++++++        +++++++++++++++3.../(++++       +++++++++++++",
"  +++++              ....56++++^'.....)++++++++++++++++       +++++++++++++        +++++++++++++++7...&+++++       ++++++++++++ ",
"  +++++               .../(++++3.....&++++++     +++++       ++++++                ++++$8..@9+++++^'..)+++++      ++++++        ",
" ++++++                ..4+++++*....56+++++3     +++++       +++++                 ++++^'...@#++++$%.@#++++      ++++++         ",
" +++++                   #++++$%....&+++++7...   +++++        ++++++              (++++3....@#++++^'./(++++      +++++          ",
" +++++                   0++++^'...@#++++$%.....)++++         ++++++++         ..&+++++*....@#++++7..&+++++      +++++          ",
" +++++                   +++++3....56++++3.....56++++7         ++++++++a  .......)++++$%..../(++++3.. +++++     +++++           ",
" +++++                   +++++*..../(++++*.....&+++++*........@b++++++++!~......@#++++^'....&+++++*   +++++     +++++           ",
" ++++++                  ++++c%....&++++!~.....4++++!~..........db+++++++7....../(++++3.....4++++$   +++++      +++++           ",
" ++++++                 +++++   ...&+++++*.....)++++$%............@9+++++$%.....&+++++*....@#++++    +++++      +++++           ",
"  ++++++                +++++    ../(++++3....@#++++$%.....@1.......)++++$%.....4++++$%....56++++    +++++      ++++++          ",
"  +++++++        +      ++++++     56++++!<..ef+++++$%.....4+><'..@_(++++$%....@#++++^'....&+++++    +++++      ++++++          ",
"   +++++++++++++++      ++++++++     +++++++++++++++$%....56+++++++++++++7.....56++++3..... +++++   +++++        ++++++++++++   ",
"   +++++++++++++++       +++++++     +++++++++++++++!~....&+++++++++++++!~.....&+++++*..    ++++    +++++        ++++++++++++   ",
"    +++++++++++++++      ++++++       +++++++++++++++*...@#+++++++++++++3......4++++$%     +++++    +++++         +++++++++++   ",
"      ++++++++++++        +++++        +++++++!g#++++7...@b(++++++++++:<......@#++++       +++++   ++++++           +++++++++   ",
"         +++++               ++          +++    4!-h,i......j}-++++;{8........5k++++       +++++   +++++              +++++     ",
"                                                     ......................                                                     ",
"                                                               .                                                                "};
